<svg height="512pt" viewBox="0 0 512 512" width="512pt" xmlns="http://www.w3.org/2000/svg"><path d="m160 256c0 52.933594 43.066406 96 96 96s96-43.066406 96-96-43.066406-96-96-96-96 43.066406-96 96zm152 0c0 30.878906-25.121094 56-56 56s-56-25.121094-56-56 25.121094-56 56-56 56 25.121094 56 56zm-56-20c11.046875 0 20 8.953125 20 20s-8.953125 20-20 20-20-8.953125-20-20 8.953125-20 20-20zm227.351562-46.03125c-.355468.167969-36.019531 17.03125-80.351562 17.03125h-20v171.769531c-9.097656-4.335937-19.269531-6.769531-30-6.769531-38.597656 0-70 31.402344-70 70s31.402344 70 70 70 70-31.402344 70-70c0-1.957031-.101562-3.890625-.261719-5.808594.15625-1.003906.261719-2.023437.261719-3.070312v-106.136719c40.882812-4.035156 75.273438-18.722656 76.9375-19.445313l12.0625-5.214843v-126.101563zm-130.351562 282.03125c-16.542969 0-30-13.457031-30-30s13.457031-30 30-30 30 13.457031 30 30-13.457031 30-30 30zm119-196.660156c-11.230469 3.828125-29.183594 9.0625-49 11.421875v-40.675781c18.984375-1.71875 35.863281-5.601563 49-9.496094zm-224.894531 196.460937c4.167969 14.800781 11.367187 28.34375 20.875 39.917969-3.980469.179688-7.972657.28125-11.980469.28125-68.378906 0-132.667969-26.628906-181.019531-74.980469-48.351563-48.351562-74.980469-112.640625-74.980469-181.019531s26.628906-132.667969 74.980469-181.019531c48.351562-48.351563 112.640625-74.980469 181.019531-74.980469s132.667969 26.628906 181.019531 74.980469c20.410157 20.40625 36.929688 43.664062 49.230469 68.859375l-20.003906 9.964844c-1.164063.519531-7.40625 3.214843-16.871094 6.039062-35.4375-70.976562-108.800781-119.84375-193.375-119.84375-119.101562 0-216 96.898438-216 216 0 116.121094 92.113281 211.117188 207.105469 215.800781zm0 0"/></svg>